<svg width="90" height="46" viewBox="0 0 90 46" fill="none" xmlns="http://www.w3.org/2000/svg">
<rect y="4" width="38" height="38" rx="5" fill="#6C63FF"/>
<path fill-rule="evenodd" clip-rule="evenodd" d="M19.1249 12.5488C19.3387 12.9174 19.321 13.3762 19.0791 13.7271C18.3455 14.7915 17.916 16.0806 17.916 17.4733C17.916 21.1243 20.8757 24.084 24.5266 24.084C25.9194 24.084 27.2085 23.6545 28.2729 22.9208C28.6238 22.6791 29.0826 22.6613 29.4512 22.8751C29.8197 23.089 30.0319 23.4962 29.9961 23.9208C29.5191 29.567 24.7867 34 19.0178 34C12.9328 34 8 29.0672 8 22.9822C8 17.2133 12.433 12.4809 18.0792 12.0039C18.5038 11.9681 18.911 12.1802 19.1249 12.5488ZM16.1799 14.6346C12.7045 15.8157 10.2036 19.1073 10.2036 22.9822C10.2036 27.8502 14.1498 31.7964 19.0178 31.7964C22.8927 31.7964 26.1843 29.2955 27.3654 25.8202C26.4741 26.1232 25.5191 26.2875 24.5266 26.2875C19.6587 26.2875 15.7124 22.3413 15.7124 17.4733C15.7124 16.4809 15.8768 15.5258 16.1799 14.6346Z" fill="#F7F7F7"/>
<g filter="url(#filter0_d_15_234)">
<rect x="48" y="4" width="38" height="38" rx="5" fill="#5850DD"/>
<path fill-rule="evenodd" clip-rule="evenodd" d="M67.1249 12.5488C67.3387 12.9174 67.321 13.3762 67.0791 13.7271C66.3455 14.7915 65.916 16.0806 65.916 17.4733C65.916 21.1243 68.8757 24.084 72.5266 24.084C73.9194 24.084 75.2085 23.6545 76.2729 22.9208C76.6238 22.6791 77.0826 22.6613 77.4512 22.8751C77.8197 23.089 78.0319 23.4962 77.9961 23.9208C77.5191 29.567 72.7867 34 67.0178 34C60.9328 34 56 29.0672 56 22.9822C56 17.2133 60.433 12.4809 66.0792 12.0039C66.5038 11.9681 66.911 12.1802 67.1249 12.5488ZM64.1799 14.6346C60.7045 15.8157 58.2036 19.1073 58.2036 22.9822C58.2036 27.8502 62.1498 31.7964 67.0178 31.7964C70.8927 31.7964 74.1843 29.2955 75.3654 25.8202C74.4741 26.1232 73.5191 26.2875 72.5266 26.2875C67.6587 26.2875 63.7124 22.3413 63.7124 17.4733C63.7124 16.4809 63.8768 15.5258 64.1799 14.6346Z" fill="#F7F7F7"/>
</g>
<defs>
<filter id="filter0_d_15_234" x="44" y="0" width="46" height="46" filterUnits="userSpaceOnUse" color-interpolation-filters="sRGB">
<feFlood flood-opacity="0" result="BackgroundImageFix"/>
<feColorMatrix in="SourceAlpha" type="matrix" values="0 0 0 0 0 0 0 0 0 0 0 0 0 0 0 0 0 0 127 0" result="hardAlpha"/>
<feOffset/>
<feGaussianBlur stdDeviation="2"/>
<feComposite in2="hardAlpha" operator="out"/>
<feColorMatrix type="matrix" values="0 0 0 0 0.423529 0 0 0 0 0.388235 0 0 0 0 1 0 0 0 1 0"/>
<feBlend mode="normal" in2="BackgroundImageFix" result="effect1_dropShadow_15_234"/>
<feBlend mode="normal" in="SourceGraphic" in2="effect1_dropShadow_15_234" result="shape"/>
</filter>
</defs>
</svg>
